<svg xmlns="http://www.w3.org/2000/svg" version="1.1" xmlns:xlink="http://www.w3.org/1999/xlink" width="100" height="100" x="0" y="0" viewBox="0 0 512 512" style="enable-background:new 0 0 512 512" xml:space="preserve" class=""><g><linearGradient id="a" x1="114.87" x2="496.302" y1="457.568" y2="76.136" gradientUnits="userSpaceOnUse"><stop offset="0" stop-color="#e81e25"></stop><stop offset=".108" stop-color="#ea3522"></stop><stop offset=".416" stop-color="#f1711c"></stop><stop offset=".678" stop-color="#f59d17"></stop><stop offset=".881" stop-color="#f8b814"></stop><stop offset="1" stop-color="#f9c213"></stop></linearGradient><path fill="url(#a)" d="m464.6 119.038-30.915-23.714a7 7 0 0 0-8.52 0l-30.919 23.714a7 7 0 0 0-2.74 5.555V398.7a7 7 0 0 0 7 7h61.838a7 7 0 0 0 7-7V124.6a7 7 0 0 0-2.744-5.562zM453.344 391.7h-47.838V128.046l23.919-18.346 23.919 18.346zM132 295.7l-30.919-23.714a7.005 7.005 0 0 0-8.519 0L61.639 295.7a7 7 0 0 0-2.741 5.555V398.7a7 7 0 0 0 7 7h61.838a7 7 0 0 0 7-7v-97.448A7 7 0 0 0 132 295.7zm-11.26 96H72.9v-86.995l23.919-18.346 23.919 18.346zM419.2 35.274C317.728 121.494 194.97 190.6 54 240.777a7 7 0 0 1-4.695-13.189C188.923 177.889 310.4 109.477 410.68 24.145l-21.1-1.156a7 7 0 1 1 .766-13.978l38.4 2.1a7 7 0 0 1 6.564 7.846l-4.687 38.021a7 7 0 0 1-13.895-1.712zm-63.348 303.049a6.978 6.978 0 0 0 .623-2.877V179a7 7 0 0 0-2.741-5.555l-30.919-23.714a7 7 0 0 0-8.519 0l-30.919 23.714a7 7 0 0 0-2.74 5.555v119.612h-35.032V244.39a7 7 0 0 0-2.74-5.555l-30.919-23.715a7 7 0 0 0-8.519 0l-30.919 23.715a7 7 0 0 0-2.74 5.555v92.652a25.482 25.482 0 0 0-20.34 24.925v115.6A25.467 25.467 0 0 0 174.865 503h171.62a25.468 25.468 0 0 0 25.439-25.438v-115.6a25.475 25.475 0 0 0-16.072-23.639zM318.556 164.1l23.919 18.347v153a7.136 7.136 0 0 0 .091 1.082h-21.7v-1.282a36.692 36.692 0 0 0-26.226-35.119V182.451zM237.12 312.612h47.109a22.66 22.66 0 0 1 22.634 22.634v1.282h-92.376v-1.282a22.66 22.66 0 0 1 22.633-22.634zM207.687 229.5l23.918 18.347v51.185a36.69 36.69 0 0 0-31.118 36.218v1.282h-16.719v-88.689zm-44.259 132.467a11.451 11.451 0 0 1 11.437-11.439h171.62a11.451 11.451 0 0 1 11.439 11.439v29.2a11.477 11.477 0 0 1-11.439 11.316h-56.648v-18a11.978 11.978 0 0 0-11.965-11.963h-34.394a11.977 11.977 0 0 0-11.964 11.963v18h-56.649a11.466 11.466 0 0 1-11.437-11.336zm112.409 24.552v30.763a15.162 15.162 0 0 1-30.323 0v-30.763zM346.485 489h-171.62a11.451 11.451 0 0 1-11.437-11.438V413.74a25.208 25.208 0 0 0 11.437 2.74h56.649v.8a29.162 29.162 0 0 0 58.323 0v-.8h56.648a25.188 25.188 0 0 0 11.439-2.745v63.827A11.451 11.451 0 0 1 346.485 489z" opacity="1" data-original="url(#a)" class=""></path></g></svg>