<svg xmlns="http://www.w3.org/2000/svg" version="1.1" xmlns:xlink="http://www.w3.org/1999/xlink" width="100" height="100" x="0" y="0" viewBox="0 0 512 512" style="enable-background:new 0 0 512 512" xml:space="preserve" class=""><g><linearGradient id="a" x1="55.534" x2="456.466" y1="413.165" y2="12.234" gradientUnits="userSpaceOnUse"><stop offset="0" stop-color="#e81e25"></stop><stop offset=".108" stop-color="#ea3522"></stop><stop offset=".416" stop-color="#f1711c"></stop><stop offset=".678" stop-color="#f59d17"></stop><stop offset=".881" stop-color="#f8b814"></stop><stop offset="1" stop-color="#f9c213"></stop></linearGradient><path fill="url(#a)" d="M461.373 34.355H50.627A41.672 41.672 0 0 0 9 75.98v273.44a41.672 41.672 0 0 0 41.625 41.624h138.31a41.368 41.368 0 0 1-9.907 29.3h-22.316a11.034 11.034 0 0 0-11.021 11.02V449a28.683 28.683 0 0 0 28.65 28.65h164.541A28.682 28.682 0 0 0 367.531 449v-17.63a11.033 11.033 0 0 0-11.02-11.02h-23.545a41.382 41.382 0 0 1-9.9-29.3h138.307A41.672 41.672 0 0 0 503 349.42V75.98a41.672 41.672 0 0 0-41.627-41.625zm-410.746 14h410.746A27.657 27.657 0 0 1 489 75.98v247.867H23V75.98a27.657 27.657 0 0 1 27.627-27.625zM353.531 449a14.666 14.666 0 0 1-14.649 14.65H174.341a14.667 14.667 0 0 1-14.65-14.65v-14.65h193.84zm-37.5-28.65H195.963a54.653 54.653 0 0 0 6.973-29.3h106.128a54.647 54.647 0 0 0 6.968 29.295zm145.341-43.3H50.627A27.656 27.656 0 0 1 23 349.42v-11.573h466v11.573a27.656 27.656 0 0 1-27.627 27.624zM262.945 202.563l-18.641-14.3a7 7 0 0 0-8.52 0l-18.642 14.3a7 7 0 0 0-2.741 5.555v93.037a7 7 0 0 0 7 7h37.285a7 7 0 0 0 7-7v-93.037a7 7 0 0 0-2.741-5.555zm-11.259 91.592H228.4v-82.584l11.643-8.929 11.642 8.929zm-82.748-71.6-18.642 14.3a7 7 0 0 0-2.74 5.554v58.753a7 7 0 0 0 7 7h37.284a7 7 0 0 0 7-7V242.4a7 7 0 0 0-2.74-5.554l-18.643-14.3a7 7 0 0 0-8.519.004zm15.9 23.3v48.3h-23.282v-48.3l11.641-8.929zm144.952-71.018-18.642-14.3a7 7 0 0 0-8.519 0l-18.643 14.3a7 7 0 0 0-2.74 5.555v120.763a7 7 0 0 0 7 7h37.284a7 7 0 0 0 7-7V180.392a7 7 0 0 0-2.738-5.555zm-11.26 119.318h-23.282v-110.31l11.643-8.93 11.641 8.93zm36.563 14h37.284a7 7 0 0 0 7-7V153.892a7 7 0 0 0-2.74-5.555L378 134.039a7 7 0 0 0-8.519 0l-18.642 14.3a7 7 0 0 0-2.74 5.555v147.261a7 7 0 0 0 7.001 7zm7-150.81 11.641-8.93 11.643 8.93v136.81H362.1zM190.273 95.7a7 7 0 0 1 7-7h38a7 7 0 0 1 0 14h-38a7 7 0 0 1-7-7zm0 28a7 7 0 0 1 7-7h38a7 7 0 0 1 0 14h-38a7 7 0 0 1-7-7zm-71.019 96.75A57.25 57.25 0 1 0 62 163.2a57.315 57.315 0 0 0 57.254 57.25zm42.675-64.25h-35.7l-.151-35.707a43.346 43.346 0 0 1 35.851 35.707zm-49.855-35.643.18 42.672a7 7 0 0 0 7 6.971h42.675a43.247 43.247 0 1 1-49.855-49.643zm189.2-26.331a7 7 0 0 1 8.574-4.951l25.289 6.777c.086.023.164.061.248.087.2.061.392.126.579.2.134.054.263.115.391.177.151.072.3.15.441.232.11.064.223.123.329.191a6.745 6.745 0 0 1 .623.458c.1.08.191.165.284.25.13.118.253.24.372.367.083.088.169.173.248.266a6.85 6.85 0 0 1 .457.605c.074.107.139.218.206.329.091.151.175.305.254.462.052.1.108.2.156.312a6.876 6.876 0 0 1 .276.747c.032.1.06.208.087.313a7 7 0 0 1 .148.7c.007.049.023.094.03.143v.04a6.906 6.906 0 0 1 .049.877c0 .094 0 .186-.006.279a6.96 6.96 0 0 1-.07.743c-.008.057-.011.115-.021.172a7.206 7.206 0 0 1-.16.708l-6.968 24.741a7 7 0 0 1-13.475-3.8l2.3-8.184L202.5 186.432a7 7 0 0 1-7-12.125L315.192 105.2l-8.965-2.4a7 7 0 0 1-4.951-8.574z" opacity="1" data-original="url(#a)"></path></g></svg>