<svg xmlns="http://www.w3.org/2000/svg" version="1.1" xmlns:xlink="http://www.w3.org/1999/xlink" width="100" height="100" x="0" y="0" viewBox="0 0 512 512" style="enable-background:new 0 0 512 512" xml:space="preserve" class=""><g><linearGradient id="a" x1="95.143" x2="417.113" y1="444.273" y2="122.303" gradientUnits="userSpaceOnUse"><stop offset="0" stop-color="#e81e25"></stop><stop offset=".108" stop-color="#ea3522"></stop><stop offset=".416" stop-color="#f1711c"></stop><stop offset=".678" stop-color="#f59d17"></stop><stop offset=".881" stop-color="#f8b814"></stop><stop offset="1" stop-color="#f9c213"></stop></linearGradient><path fill="url(#a)" d="M225.735 419.636c-.019.025-.036.051-.056.076-.148.179-.3.352-.468.516l-32.857 32.856a7 7 0 0 1-9.9-9.9l20.913-20.914H94.927a52.738 52.738 0 0 1-52.679-52.678V282.8a7 7 0 0 1 14 0v86.8a38.722 38.722 0 0 0 38.679 38.678h108.441l-22.454-22.454a7 7 0 0 1 9.9-9.9l34.4 34.4c.164.164.32.337.468.516.02.025.037.051.056.076.123.154.242.311.352.475l.052.085c.106.164.208.331.3.5l.028.059c.1.183.186.369.265.561l.012.033q.123.3.219.609c0 .016.007.032.012.048.059.2.113.406.154.614.01.049.014.1.023.149.031.175.061.35.079.529q.035.346.035.7t-.035.7a7.093 7.093 0 0 1-.079.529c-.009.049-.013.1-.023.149a6.974 6.974 0 0 1-.154.614c0 .016-.008.032-.012.048q-.1.31-.219.609l-.012.033a6.517 6.517 0 0 1-.265.56l-.028.06a7.109 7.109 0 0 1-.3.5l-.052.086c-.113.159-.232.316-.355.47zM270.74 138c-.06.091-.113.185-.169.278s-.126.2-.182.309-.1.2-.142.295-.106.215-.152.326c-.039.1-.071.194-.107.292-.042.117-.087.233-.123.354-.03.1-.051.2-.076.294-.031.123-.066.245-.09.37s-.035.222-.051.333-.038.228-.05.344c-.019.2-.027.4-.03.6v.179c0 .2.011.4.03.6.011.115.032.226.049.339s.03.226.052.338.058.243.088.363c.026.1.048.2.078.3.036.117.079.23.12.344s.07.2.111.3.1.208.144.311.1.209.15.311.111.189.168.284.118.205.185.3.142.194.214.291.125.176.194.26c.125.152.259.3.4.438.023.024.043.05.067.074l34.4 34.4a7 7 0 0 0 9.9-9.9l-22.455-22.447H407.9a38.722 38.722 0 0 1 38.679 38.678v86.8a7 7 0 0 0 14 0v-86.8A52.738 52.738 0 0 0 407.9 134.88H293.463l20.912-20.914a7 7 0 1 0-9.9-9.9l-32.855 32.859c-.166.165-.323.34-.472.521-.057.069-.106.142-.159.213a4.19 4.19 0 0 0-.249.341zm-15.93 102.67a12.109 12.109 0 0 1-4.66 8.412c-23.613 18.542-56.463 27.471-97.633 26.567-1.91.042-3.808.063-5.681.063-38.525 0-69.435-8.947-91.953-26.63a12.112 12.112 0 0 1-4.66-8.411c-4.252-39.65 1.624-66.48 17.962-82.025q.189-.181.392-.346c17.732-14.512 38.192-21 60.83-19.291a7 7 0 0 1 5.347 3.174c3.315 5.117 10.121 8.295 17.763 8.295s14.447-3.178 17.762-8.295a7 7 0 0 1 5.347-3.174c22.634-1.714 43.1 4.779 60.83 19.291q.2.165.392.346c16.338 15.541 22.214 42.371 17.962 82.021zm-27.429-71.706c-14.187-11.539-29.792-16.843-47.581-16.173-6.261 7.377-16.187 11.687-27.283 11.687s-21.022-4.31-27.283-11.687c-17.8-.684-33.394 4.633-47.583 16.173C65.087 181.1 60.519 204.489 64.07 238.49c20.994 16.222 50.687 24.016 88.287 23.156h.319c37.6.864 67.292-6.933 88.286-23.156 3.552-34.002-1.017-57.39-13.581-69.529zM96.994 74.905a55.523 55.523 0 1 1 55.523 55.523 55.585 55.585 0 0 1-55.523-55.523zm14 0a41.523 41.523 0 1 0 41.523-41.522 41.57 41.57 0 0 0-41.523 41.522zm357.441 382.669a12.107 12.107 0 0 1-4.661 8.412c-22.516 17.682-53.431 26.63-91.952 26.63q-2.814 0-5.681-.063c-41.177.895-74.02-8.025-97.633-26.567a12.112 12.112 0 0 1-4.66-8.411c-4.252-39.65 1.624-66.48 17.962-82.025.126-.12.257-.236.392-.346 17.732-14.511 38.2-21 60.83-19.291a7 7 0 0 1 5.347 3.174c3.314 5.117 10.121 8.3 17.762 8.3s14.448-3.178 17.763-8.3a7 7 0 0 1 5.347-3.174c22.634-1.716 43.1 4.779 60.83 19.291.134.11.265.226.391.346 16.339 15.544 22.215 42.375 17.963 82.024zm-27.429-71.706c-14.187-11.538-29.775-16.857-47.582-16.173-6.26 7.377-16.187 11.687-27.282 11.687-11.1 0-21.022-4.31-27.283-11.687-17.789-.684-33.394 4.635-47.582 16.173-12.566 12.137-17.133 35.532-13.577 69.532 20.994 16.223 50.7 24.024 88.286 23.156h.32c37.589.873 67.292-6.933 88.286-23.156 3.548-34.006-1.02-57.395-13.586-69.532zm-19.341-94.055a55.523 55.523 0 1 1-55.523-55.524 55.586 55.586 0 0 1 55.523 55.524zm-14 0a41.523 41.523 0 1 0-41.523 41.522 41.57 41.57 0 0 0 41.523-41.522z" opacity="1" data-original="url(#a)"></path></g></svg>