<svg xmlns="http://www.w3.org/2000/svg" version="1.1" xmlns:xlink="http://www.w3.org/1999/xlink" width="100" height="100" x="0" y="0" viewBox="0 0 512 512" style="enable-background:new 0 0 512 512" xml:space="preserve" class=""><g><linearGradient id="a" x1="47.651" x2="465.253" y1="431.465" y2="13.864" gradientUnits="userSpaceOnUse"><stop offset="0" stop-color="#e81e25"></stop><stop offset=".108" stop-color="#ea3522"></stop><stop offset=".416" stop-color="#f1711c"></stop><stop offset=".678" stop-color="#f59d17"></stop><stop offset=".881" stop-color="#f8b814"></stop><stop offset="1" stop-color="#f9c213"></stop></linearGradient><path fill="url(#a)" d="M451.128 9H60.872a22.419 22.419 0 0 0-22.394 22.394v322.475a22.419 22.419 0 0 0 22.394 22.394h95.322l3.5 20.755a15.238 15.238 0 0 0 9.966 11.932 15.593 15.593 0 0 0 5.294.936 15.242 15.242 0 0 0 9.992-3.756l33.96-29.242c.8 1.653 1.609 3.308 2.451 4.966a7 7 0 0 0 6.24 3.828h.1l7.118-.1-10.588 23.328c-15.53 4.021-28.643 11.479-36.725 21.186-9.269-5.641-21.4-8.784-34.434-8.784-21.175 0-33.251 7.889-39.652 14.508a44.149 44.149 0 0 0-12.066 30.98c0 20.3 11.846 36.2 26.968 36.2h255.645c17.52 0 26.687-15.274 26.687-30.362 0-13.907-7.788-27.972-22.726-30.09-7.666-12.7-26.286-21.236-47.346-21.236a70.6 70.6 0 0 0-28.973 5.922 62.167 62.167 0 0 0-17.136-12.151l-11.132-30.22 9.068-.134a7 7 0 0 0 6.141-3.834c.842-1.661 1.652-3.32 2.446-4.978l33.416 28.773a15.247 15.247 0 0 0 9.993 3.757 15.611 15.611 0 0 0 5.3-.937 15.236 15.236 0 0 0 9.963-11.933l3.255-19.314h88.212a22.419 22.419 0 0 0 22.394-22.394V31.394A22.419 22.419 0 0 0 451.128 9zM60.872 23h390.256a8.4 8.4 0 0 1 8.394 8.394v70.514H52.478V31.394A8.4 8.4 0 0 1 60.872 23zm114.937 372.522a1.411 1.411 0 0 1-2.312-.833l-7.507-44.544a1.21 1.21 0 0 1 .39-1.23l33.291-33.452a198.078 198.078 0 0 0 13.271 48.084zm128.5 44.678a7 7 0 0 0 9.209 1.81c7.195-4.32 16.8-6.7 27.057-6.7 19.477 0 33.27 8.494 36.358 16.486a7 7 0 0 0 6.529 4.477h.5c10.016 0 12.688 10.285 12.688 16.363S393.979 489 383.963 489H128.318c-6.908 0-12.968-10.373-12.968-22.2a30.235 30.235 0 0 1 8.129-21.248c6.572-6.8 16.528-10.241 29.589-10.241 12.693 0 24.46 3.7 31.478 9.9a7 7 0 0 0 10.771-1.879c7.668-13.98 30.5-23.745 55.513-23.745 23.128.001 44.122 8.092 53.482 20.613zm-27.08-31.409a108 108 0 0 0-26.4-3.2c-3.353 0-6.668.153-9.925.448l9.388-20.687 18.2-.268zM231.9 371.618c-34.073-69.938-24.778-133.243 28.4-193.187 51.72 61.085 60.762 124.118 27.63 192.363zm113.958 21.631a1.411 1.411 0 0 1-2.312.834l-36.63-31.541a193.6 193.6 0 0 0 12.935-48.354l33.124 33.288a1.21 1.21 0 0 1 .391 1.229zm105.272-30.986h-85.854l1.893-11.231A15.237 15.237 0 0 0 362.9 337.6l-41.722-41.927c.724-45.888-17.807-90.194-55.529-132.428a7 7 0 0 0-10.328-.124c-39.432 42.073-58.512 86.922-57.177 134.033l-41.687 41.886a15.238 15.238 0 0 0-4.272 13.431l1.65 9.792H60.872a8.4 8.4 0 0 1-8.394-8.394V115.908h407.044v237.961a8.4 8.4 0 0 1-8.394 8.394zM91.349 81.411a21.526 21.526 0 1 0-21.526-21.526 21.551 21.551 0 0 0 21.526 21.526zm0-29.052a7.526 7.526 0 1 1-7.526 7.526 7.534 7.534 0 0 1 7.526-7.526zm48.1 29.052a21.526 21.526 0 1 0-21.526-21.526 21.551 21.551 0 0 0 21.522 21.526zm0-29.052a7.526 7.526 0 1 1-7.526 7.526 7.534 7.534 0 0 1 7.522-7.526zm48.1 29.052a21.526 21.526 0 1 0-21.526-21.526 21.55 21.55 0 0 0 21.519 21.526zm0-29.052a7.526 7.526 0 1 1-7.526 7.526 7.534 7.534 0 0 1 7.519-7.526zM249.508 81.3h105.049a21.419 21.419 0 1 0 0-42.837H249.508a21.419 21.419 0 0 0 0 42.837zm0-28.837h105.049a7.419 7.419 0 1 1 0 14.837H249.508a7.419 7.419 0 0 1 0-14.837zM387.737 59.2a7 7 0 0 1 7-7H419.5l-5.374-5.374a7 7 0 0 1 9.9-9.9L441.35 54.25c.027.027.048.059.074.086a6.956 6.956 0 0 1 .518.6c.059.077.116.155.172.234a6.807 6.807 0 0 1 .421.669c.018.033.04.064.058.1a7.034 7.034 0 0 1 .355.807c.03.079.057.159.084.239a7.033 7.033 0 0 1 .207.752c.009.041.022.081.03.123a6.966 6.966 0 0 1 .106.851c.006.093.01.184.013.277a7.184 7.184 0 0 1-.017.79c0 .047-.007.095-.012.143a7.034 7.034 0 0 1-.143.839 6.237 6.237 0 0 1-.055.227 6.986 6.986 0 0 1-.291.881v.01l-.017.034a7.081 7.081 0 0 1-.4.8 6.46 6.46 0 0 0-.1.176 6.972 6.972 0 0 1-.533.751c-.021.026-.046.05-.068.076-.125.148-.253.3-.393.434l-15.796 15.787a7 7 0 0 1-9.9-9.9l3.84-3.84h-24.766a7 7 0 0 1-7-6.996zM243.1 233.376a24.831 24.831 0 1 0 35.116 0 24.86 24.86 0 0 0-35.116 0zm25.217 25.216A10.831 10.831 0 0 1 253 243.275a10.831 10.831 0 1 1 15.318 15.317zm-52.342 202.669a7 7 0 0 1 .381 9.892 10.682 10.682 0 0 1-12.281 2.333 90.939 90.939 0 0 1-13.87-8.6 60.133 60.133 0 0 0-1.863-1.337c-1.6.668-5.034 2.708-8.644 4.851-3.056 1.814-6.86 4.073-11.691 6.828a7 7 0 0 1-6.935-12.162c4.724-2.694 8.47-4.917 11.48-6.7 7.173-4.258 10.447-6.2 14-6.813 5.215-.9 8.638 1.624 11.95 4.062a76.541 76.541 0 0 0 9.938 6.363 7 7 0 0 1 7.535 1.283zm81.247 8.761c11.3-18.081 22.633-26.517 47.105-16.126a7 7 0 1 1-5.471 12.886c-15.981-6.784-20.706-3.826-29.763 10.661a7 7 0 0 1-11.871-7.421zm-48.028-16.17a7 7 0 1 1 13.393 4.077c-2.124 6.978-11.481 19.546-16.01 23.44a7 7 0 1 1-9.128-10.614c3.342-2.874 10.697-13.455 11.745-16.903z" opacity="1" data-original="url(#a)" class=""></path></g></svg>