<svg xmlns="http://www.w3.org/2000/svg" version="1.1" xmlns:xlink="http://www.w3.org/1999/xlink" width="100" height="100" x="0" y="0" viewBox="0 0 512 512" style="enable-background:new 0 0 512 512" xml:space="preserve" class=""><g><linearGradient id="a" x1="112.314" x2="404.255" y1="374.078" y2="82.137" gradientUnits="userSpaceOnUse"><stop offset="0" stop-color="#e81e25"></stop><stop offset=".108" stop-color="#ea3522"></stop><stop offset=".416" stop-color="#f1711c"></stop><stop offset=".678" stop-color="#f59d17"></stop><stop offset=".881" stop-color="#f8b814"></stop><stop offset="1" stop-color="#f9c213"></stop></linearGradient><path fill="url(#a)" d="M265.957 315.9a7 7 0 0 1-7 7h-99.71a7 7 0 0 1 0-14h99.71a7 7 0 0 1 7 7zm-13.206 23.676h-93.5a7 7 0 0 0 0 14h93.5a7 7 0 0 0 0-14zm12.357-67.976H164.643a7 7 0 1 0 0 14h100.465a7 7 0 0 0 0-14zm171.1 129-7.008 41.613a14.689 14.689 0 0 1-9.605 11.5 15.052 15.052 0 0 1-5.105.9 14.7 14.7 0 0 1-9.633-3.62L374.1 424.517a237.046 237.046 0 0 1-2.03 4.115 7 7 0 0 1-6.141 3.835l-60.439.888h-.1a7 7 0 0 1-6.24-3.828c-.7-1.37-1.37-2.737-2.033-4.1l-31.262 26.92a14.7 14.7 0 0 1-9.632 3.621 15.036 15.036 0 0 1-5.107-.9 14.685 14.685 0 0 1-9.605-11.5l-7.011-41.617A14.691 14.691 0 0 1 238.615 389l5.143-5.168H136.073a21.975 21.975 0 0 1-21.95-21.95V350.21h-16.6a21.976 21.976 0 0 1-21.951-21.951V30.951A21.976 21.976 0 0 1 97.523 9h219.594a21.976 21.976 0 0 1 21.951 21.951v11.676h16.6a21.975 21.975 0 0 1 21.951 21.95v213.9q16.164 34.318 15.648 70.169l38.827 39.017a14.7 14.7 0 0 1 4.118 12.943zm-322.089-64.4V64.577a21.975 21.975 0 0 1 21.95-21.95h188.999V30.951A7.96 7.96 0 0 0 317.117 23H97.523a7.96 7.96 0 0 0-7.951 7.951v297.308a7.96 7.96 0 0 0 7.951 7.951zm143.571 33.636 19.71-19.807c-1.2-44.05 16.671-85.987 53.543-125.33a7 7 0 0 1 10.328.124 250.13 250.13 0 0 1 22.345 28.845V64.577a7.959 7.959 0 0 0-7.951-7.95H136.073a7.959 7.959 0 0 0-7.95 7.95v297.309a7.959 7.959 0 0 0 7.95 7.95zm33.461 42.249A185.927 185.927 0 0 1 278.97 368.3l-30.431 30.578a.686.686 0 0 0-.236.748l7.012 41.6a.856.856 0 0 0 1.4.506zm70.3 6.446c22.8-47.108 24-91.555 3.427-134.577a6.961 6.961 0 0 1-.962-1.981 209.277 209.277 0 0 0-27.989-41.952c-49.153 55.641-57.741 114.394-26.234 179.272zm60.716-21-30.267-30.42a181.6 181.6 0 0 1-11.868 44.035l33.964 29.245a.856.856 0 0 0 1.4-.507l7.012-41.6a.685.685 0 0 0-.239-.75zM353 290.309a23.654 23.654 0 1 1-33.452 0 23.679 23.679 0 0 1 33.452 0zm-9.9 9.9a9.655 9.655 0 1 0 0 13.655 9.624 9.624 0 0 0 0-13.657zm-8.3 137.577a7 7 0 0 0-7 7v28.169a7 7 0 0 0 14 0v-28.171a7 7 0 0 0-6.995-7zm-26.569 13.445a7 7 0 0 0-7 7V496a7 7 0 0 0 14 0v-37.771a7 7 0 0 0-6.995-7zm53.137 0a7 7 0 0 0-7 7V496a7 7 0 0 0 14 0v-37.771a7 7 0 0 0-6.995-7zM169.143 227.438a6.99 6.99 0 0 0 8.726 4.675c41.433-12.522 48.778-32.226 55.259-49.611 4.4-11.813 8.338-22.336 23.087-31.216l-1.59 5.844a7 7 0 1 0 13.508 3.676l5.594-20.551.006-.032c.019-.068.029-.138.046-.206a7.143 7.143 0 0 0 .133-.74c.013-.108.028-.214.036-.322a6.717 6.717 0 0 0 .015-.862c0-.048.006-.093 0-.141 0-.082-.027-.16-.035-.242q-.03-.285-.082-.564a6.886 6.886 0 0 0-.174-.721c-.034-.116-.067-.231-.108-.344a6.923 6.923 0 0 0-.853-1.664 2.87 2.87 0 0 0-.064-.089 6.97 6.97 0 0 0-4-2.73l-24.154-5.93a7 7 0 1 0-3.338 13.6l5.68 1.394c-17.225 11.2-22.265 24.714-26.827 36.954-6.118 16.412-11.4 30.586-46.191 41.1a7 7 0 0 0-4.674 8.722zM278.4 126.456a27.247 27.247 0 1 1 27.251 27.244 27.278 27.278 0 0 1-27.251-27.244zm14 0a13.247 13.247 0 1 0 13.247-13.246 13.261 13.261 0 0 0-13.247 13.246zm-1.157 66.434a7 7 0 0 0-9.9 0l-11.1 11.1-11.1-11.1a7 7 0 0 0-9.9 9.9l11.1 11.1-11.1 11.1a7 7 0 1 0 9.9 9.9l11.1-11.1 11.1 11.1a7 7 0 0 0 9.9-9.9l-11.1-11.1 11.1-11.1a7 7 0 0 0 .004-9.9zM152.437 169.3a7 7 0 0 0 9.9 0l11.1-11.1 11.1 11.1a7 7 0 1 0 9.9-9.9l-11.1-11.1 11.1-11.1a7 7 0 1 0-9.9-9.9l-11.1 11.1-11.1-11.1a7 7 0 1 0-9.9 9.9l11.1 11.1-11.1 11.1a7 7 0 0 0 0 9.9z" opacity="1" data-original="url(#a)"></path></g></svg>