<svg xmlns="http://www.w3.org/2000/svg" version="1.1" xmlns:xlink="http://www.w3.org/1999/xlink" width="100" height="100" x="0" y="0" viewBox="0 0 512 512" style="enable-background:new 0 0 512 512" xml:space="preserve" class=""><g><linearGradient id="a" x1="82.326" x2="445.394" y1="487.324" y2="124.257" gradientUnits="userSpaceOnUse"><stop offset="0" stop-color="#e81e25"></stop><stop offset=".108" stop-color="#ea3522"></stop><stop offset=".416" stop-color="#f1711c"></stop><stop offset=".678" stop-color="#f59d17"></stop><stop offset=".881" stop-color="#f8b814"></stop><stop offset="1" stop-color="#f9c213"></stop></linearGradient><path fill="url(#a)" d="M503 211.073v-18.265a26.5 26.5 0 0 0-26.466-26.466h-104.8a26.5 26.5 0 0 0-26.466 26.466v18.265a26.425 26.425 0 0 0 8.581 19.445 26.663 26.663 0 0 0-4.427 5.281 239.229 239.229 0 0 0-33.31-42.477 19.813 19.813 0 0 0 14.171-18.964V163.8a19.809 19.809 0 0 0-19.783-19.791h-12.333c14.043-13.555 20.979-33.738 20.651-60.319a14.591 14.591 0 0 0-21.206-12.829c-18.815 9.572-34.674 9-48.485-1.748a14.414 14.414 0 0 0-16.922-.713c-16.579 10.795-31.92 12.054-46.9 3.851a14.593 14.593 0 0 0-21.6 12.812c.026 25.867 5.927 45.6 17.586 58.946h-17A19.81 19.81 0 0 0 144.5 163.8v10.562a19.807 19.807 0 0 0 13.272 18.663c-22.3 22.761-38.652 47.555-49.762 75.432a246.61 246.61 0 0 0-10.475 32.671H35.466A26.5 26.5 0 0 0 9 327.59v18.265a26.415 26.415 0 0 0 8.569 19.456A26.4 26.4 0 0 0 9 384.787v18.266a26.5 26.5 0 0 0 26.466 26.467h91.485c11.79 8.452 26.317 13.792 43.2 15.86a7.025 7.025 0 0 0 .82.052l126.6.556h.031c.207 0 .414-.009.619-.027 45.445-4.029 67.774-21.667 78.675-36.829h99.636A26.5 26.5 0 0 0 503 382.666V364.4a26.394 26.394 0 0 0-8.571-19.477A26.416 26.416 0 0 0 503 325.469V307.2a26.4 26.4 0 0 0-8.57-19.477 26.419 26.419 0 0 0 8.57-19.452v-18.266a26.4 26.4 0 0 0-8.569-19.477A26.415 26.415 0 0 0 503 211.073zM177.7 85.048a.592.592 0 0 1 .877-.519c19.647 10.759 40.26 9.28 61.267-4.4a.5.5 0 0 1 .684.03c18.277 14.223 39.618 15.29 63.431 3.178a.454.454 0 0 1 .574.019.46.46 0 0 1 .286.5c.383 31.2-10.078 50.884-31.96 60.149h-69.344c-17.335-9.205-25.784-28.497-25.815-58.957zM158.5 163.8a5.793 5.793 0 0 1 5.787-5.787H310.5a5.793 5.793 0 0 1 5.786 5.787v10.562a5.794 5.794 0 0 1-5.786 5.788H164.288a5.794 5.794 0 0 1-5.787-5.788zM35.361 358.321A12.5 12.5 0 0 1 23 345.855V327.59a12.48 12.48 0 0 1 12.466-12.466h104.8a12.48 12.48 0 0 1 12.466 12.466v18.265a12.5 12.5 0 0 1-12.354 12.466H35.393zM23 403.053v-18.266a12.48 12.48 0 0 1 12.466-12.466h104.8a12.48 12.48 0 0 1 12.466 12.466v18.266a12.481 12.481 0 0 1-12.466 12.467h-104.8A12.481 12.481 0 0 1 23 403.053zm274.308 28.934-125.854-.553a91.363 91.363 0 0 1-19.6-4.6 26.5 26.5 0 0 0 14.872-23.786v-18.261a26.4 26.4 0 0 0-8.571-19.477 26.416 26.416 0 0 0 8.571-19.455V327.59a26.5 26.5 0 0 0-26.466-26.466h-28.281a233.531 233.531 0 0 1 9.036-27.487c11.829-29.68 30.063-55.7 55.677-79.491h119.552c17.611 14.546 35.767 37.646 49.028 62.448v11.677a26.416 26.416 0 0 0 8.572 19.453 26.4 26.4 0 0 0-8.572 19.479v18.266a26.419 26.419 0 0 0 8.571 19.454 26.4 26.4 0 0 0-8.571 19.477v18.266a26.5 26.5 0 0 0 15.468 24.063c-10.478 11.031-29.377 22.18-63.432 25.258zM489 382.666a12.48 12.48 0 0 1-12.466 12.466h-104.8a12.48 12.48 0 0 1-12.466-12.466V364.4a12.479 12.479 0 0 1 12.466-12.465h104.8A12.479 12.479 0 0 1 489 364.4zm-12.466-44.731H371.621a12.5 12.5 0 0 1-12.349-12.465V307.2a12.481 12.481 0 0 1 12.466-12.467h104.8A12.481 12.481 0 0 1 489 307.2v18.266a12.5 12.5 0 0 1-12.349 12.465h-.046zm0-57.2H371.618a12.5 12.5 0 0 1-12.35-12.465v-18.265a12.48 12.48 0 0 1 12.466-12.466h104.8A12.48 12.48 0 0 1 489 250.005v18.266a12.5 12.5 0 0 1-12.357 12.465h-.033zm0-57.2H371.542a12.519 12.519 0 0 1-12.274-12.465v-18.262a12.48 12.48 0 0 1 12.466-12.466h104.8A12.48 12.48 0 0 1 489 192.808v18.265a12.5 12.5 0 0 1-12.358 12.466h-.033zm-198.913 97.7c7.695 9.242 9.749 20.565 5.634 31.065-4.736 12.085-16.578 20.472-31.679 22.437a61.569 61.569 0 0 1-3.415.342v13.526a7 7 0 0 1-14 0v-14.032c-17.435-2.611-33.848-12.833-38.511-33.116a7 7 0 1 1 13.65-3.137c4.286 18.648 23.414 24.757 40.475 22.534 9.96-1.295 17.606-6.4 20.451-13.662 2.227-5.686 1.035-11.722-3.358-17-6.867-8.247-14.526-9.4-24.221-10.849a88.226 88.226 0 0 1-17.866-4.051c-.073-.026-.145-.055-.217-.084-14.957-6.056-23.764-17.655-23.564-31.026.2-13.713 9.587-26 23.9-31.312a50.484 50.484 0 0 1 9.258-2.477v-14.128a7 7 0 0 1 14 0v13.963c15.887 2.316 29.558 13.246 36.095 30.506a7 7 0 1 1-13.092 4.959c-6.963-18.379-23.6-26.294-41.393-19.7-8.72 3.232-14.656 10.625-14.772 18.395-.111 7.451 5.248 13.933 14.709 17.8 4.948 1.8 9.836 2.533 15.01 3.309 10.608 1.593 22.629 3.396 32.906 15.738z" opacity="1" data-original="url(#a)"></path></g></svg>