<svg xmlns="http://www.w3.org/2000/svg" version="1.1" xmlns:xlink="http://www.w3.org/1999/xlink" width="100" height="100" x="0" y="0" viewBox="0 0 512.004 512.004" style="enable-background:new 0 0 512 512" xml:space="preserve" class=""><g><path d="M256.004 492.002v-192" style="stroke-width:40;stroke-linecap:round;stroke-linejoin:round;stroke-miterlimit:10;" fill="none" stroke="#ff9800" stroke-width="40" stroke-linecap="round" stroke-linejoin="round" stroke-miterlimit="10" data-original="#ff5cf4" opacity="1"></path><path d="M80 220.002c0-35.748 19.446-66.018 51.797-76.274 13.619-4.317 23.931-15.629 26.996-29.584 9.679-44.072 43.585-79.062 87.047-90.313A117.586 117.586 0 0 0 216 20.002c-57.397 0-105.382 40.296-117.207 94.142-3.065 13.955-13.376 25.267-26.996 29.584C39.446 153.984 20 184.254 20 220.002c0 44.182 31.818 80 76 80h60c-44.182 0-76-35.818-76-80z" style="" fill="#f0f8ff" data-original="#cee1f2" class="" opacity="1"></path><path d="M336 300.002h80c44.182 0 76-35.818 76-80 0-36.099-19.908-66.611-52.752-76.57a40.039 40.039 0 0 1-26.684-26.697C402.599 83.899 372.09 60.002 336 60.002c-3.03 0-6.008.197-8.933.564a40.02 40.02 0 0 1-31.72-9.938C274.253 31.686 246.601 20.002 216 20.002c-57.397 0-105.382 40.296-117.207 94.142-3.065 13.955-13.376 25.267-26.996 29.585C39.446 153.984 20 184.254 20 220.002c0 44.182 31.818 80 76 80h80" style="stroke-width:40;stroke-linecap:round;stroke-linejoin:round;stroke-miterlimit:10;" fill="none" stroke="#7b68ee" stroke-width="40" stroke-linecap="round" stroke-linejoin="round" stroke-miterlimit="10" data-original="#0023c4" opacity="1" class=""></path><path d="M60.004 492.002v-80h392v80M20.004 492.002h80M216.004 492.002h80M412.004 492.002h80" style="stroke-width:40;stroke-linecap:round;stroke-linejoin:round;stroke-miterlimit:10;" fill="none" stroke="#ff9800" stroke-width="40" stroke-linecap="round" stroke-linejoin="round" stroke-miterlimit="10" data-original="#ff5cf4" opacity="1"></path></g></svg>