<svg xmlns="http://www.w3.org/2000/svg" version="1.1" xmlns:xlink="http://www.w3.org/1999/xlink" width="100" height="100" x="0" y="0" viewBox="0 0 512 512" style="enable-background:new 0 0 512 512" xml:space="preserve" class=""><g><path d="M152 220c0-100.26 73.776-183.284 170-197.76A201.584 201.584 0 0 0 292 20C181.543 20 92 109.543 92 220s89.543 200 200 200c10.197 0 20.214-.768 30-2.24-96.224-14.476-170-97.5-170-197.76z" style="" fill="#f0f8ff" data-original="#cee1f2" class="" opacity="1"></path><path d="m212 180-40 40 40 40M372 180l40 40-40 40M312 140l-40 160" style="stroke-width:40;stroke-linecap:round;stroke-linejoin:round;stroke-miterlimit:10;" fill="none" stroke="#ff9800" stroke-width="40" stroke-linecap="round" stroke-linejoin="round" stroke-miterlimit="10" data-original="#ff5cf4" opacity="1" class=""></path><circle cx="292" cy="220" r="200" style="stroke-width:40;stroke-linecap:round;stroke-linejoin:round;stroke-miterlimit:10;" fill="none" stroke="#7b68ee" stroke-width="40" stroke-linecap="round" stroke-linejoin="round" stroke-miterlimit="10" data-original="#0023c4" opacity="1" class=""></circle><path d="m124.396 444.166-36.115 36.115C80.469 488.094 70.234 492 60 492s-20.469-3.906-28.281-11.719c-15.625-15.625-15.625-40.938 0-56.562l36.115-36.115" style="stroke-width:40;stroke-linecap:round;stroke-linejoin:round;stroke-miterlimit:10;" fill="none" stroke="#7b68ee" stroke-width="40" stroke-linecap="round" stroke-linejoin="round" stroke-miterlimit="10" data-original="#0023c4" opacity="1" class=""></path></g></svg>