<svg xmlns="http://www.w3.org/2000/svg" version="1.1" xmlns:xlink="http://www.w3.org/1999/xlink" width="100" height="100" x="0" y="0" viewBox="0 0 512 512" style="enable-background:new 0 0 512 512" xml:space="preserve" class=""><g><path d="M116 247.999V133.126c0-16.922 10.657-32.034 26.602-37.701 22.694-8.065 40.758-26.129 48.823-48.823C197.096 30.647 212.193 20 229.126 20h-60c-16.932 0-32.03 10.647-37.7 26.602-8.065 22.694-26.129 40.758-48.823 48.823C66.657 101.092 56 116.205 56 133.126v114.872C56 366.8 139.601 468.799 256 492a250.261 250.261 0 0 0 30.003-7.949C185.508 450.661 116 356.32 116 247.999z" style="" fill="#f0f8ff" data-original="#cee1f2" opacity="1" class=""></path><path d="M455.968 252C454.116 369.084 371.09 469.06 256 492 139.601 468.799 56 366.8 56 247.999V133.127c0-16.922 10.657-32.034 26.602-37.701 22.694-8.065 40.758-26.129 48.823-48.823C137.096 30.648 152.193 20 169.126 20h173.748c16.922 0 32.033 10.657 37.7 26.602 8.064 22.691 26.124 40.753 48.814 48.82 15.943 5.668 26.612 20.77 26.612 37.69V172" style="stroke-width:40;stroke-linecap:round;stroke-linejoin:round;stroke-miterlimit:10;" fill="none" stroke="#7b68ee" stroke-width="40" stroke-linecap="round" stroke-linejoin="round" stroke-miterlimit="10" data-original="#0023c4" opacity="1" class=""></path><path d="m176 216-40 40 40 40M336 216l40 40-40 40M276 176l-40 160" style="stroke-width:40;stroke-linecap:round;stroke-linejoin:round;stroke-miterlimit:10;" fill="none" stroke="#ff9800" stroke-width="40" stroke-linecap="round" stroke-linejoin="round" stroke-miterlimit="10" data-original="#ff5cf4" opacity="1"></path></g></svg>