<?xml version="1.0" encoding="utf-8"?>
<!-- Generator: Adobe Illustrator 22.0.1, SVG Export Plug-In . SVG Version: 6.00 Build 0)  -->
<svg version="1.1" id="Layer_1" xmlns="http://www.w3.org/2000/svg" xmlns:xlink="http://www.w3.org/1999/xlink" x="0px" y="0px"
	 viewBox="0 0 50 50" style="enable-background:new 0 0 50 50;" xml:space="preserve">
<style type="text/css">
	.st0{fill:#5382A1;}
	.st1{fill:#E76F00;}
</style>
<g>
	<path class="st0" d="M18.5,38.6c0,0-1.9,1.1,1.3,1.5c3.9,0.4,5.9,0.4,10.1-0.4c0,0,1.1,0.7,2.7,1.3C23.1,45,11,40.7,18.5,38.6"/>
	<path class="st0" d="M17.4,33.2c0,0-2.1,1.6,1.1,1.9c4.1,0.4,7.4,0.5,13.1-0.6c0,0,0.8,0.8,2,1.2C22,39.1,9.1,36,17.4,33.2"/>
	<path class="st1" d="M27.2,24.1c2.4,2.7-0.6,5.2-0.6,5.2s6-3.1,3.2-7c-2.6-3.6-4.5-5.4,6.1-11.6C36,10.7,19.2,14.9,27.2,24.1"/>
	<path class="st0" d="M39.9,42.5c0,0,1.4,1.1-1.5,2c-5.5,1.7-23,2.2-27.9,0.1c-1.7-0.8,1.5-1.8,2.6-2c1.1-0.2,1.7-0.2,1.7-0.2
		c-1.9-1.4-12.6,2.7-5.4,3.9C28.9,49.4,45,44.8,39.9,42.5"/>
	<path class="st0" d="M19.4,27.6c0,0-8.9,2.1-3.2,2.9c2.4,0.3,7.3,0.3,11.8-0.1c3.7-0.3,7.4-1,7.4-1s-1.3,0.6-2.2,1.2
		c-9,2.4-26.5,1.3-21.5-1.2C16,27.4,19.4,27.6,19.4,27.6"/>
	<path class="st0" d="M35.4,36.6c9.2-4.8,4.9-9.4,2-8.7c-0.7,0.2-1.1,0.3-1.1,0.3s0.3-0.4,0.8-0.6c5.9-2.1,10.4,6.1-1.9,9.3
		C35.2,36.8,35.4,36.7,35.4,36.6"/>
	<path class="st1" d="M29.9,0.7c0,0,5.1,5.1-4.8,12.9c-8,6.3-1.8,9.9,0,14c-4.6-4.2-8.1-7.9-5.8-11.3C22.6,11.2,31.9,8.8,29.9,0.7"
		/>
	<path class="st0" d="M20.3,49.5c8.8,0.6,22.4-0.3,22.7-4.5c0,0-0.6,1.6-7.3,2.8c-7.5,1.4-16.8,1.3-22.3,0.3
		C13.4,48.2,14.5,49.1,20.3,49.5"/>
</g>
</svg>
